<svg width="200" height="200" xmlns="http://www.w3.org/2000/svg" xml:space="preserve" enable-background="new 0 0 180 153.895" version="1.1">
 <defs class="defs">
  <linearGradient y2="100%" x2="50%" y1="0%" x1="50%" gradientTransform="translate(0.5,0.5) rotate(270) translate(-0.5,-0.5)" class="linearGradient1" id="linearGradient49c8a72cd5700b0b9505a6595135229a">
   <stop stop-color="#FFDD64" class="linearGradientColor1" offset="0%" id="stop1"/>
    <stop stop-color="#FF8F00" class="linearGradientColor2" offset="100%" id="stop2"/>
  </linearGradient>
   <linearGradient y2="100%" x2="50%" y1="0%" x1="50%" gradientTransform="translate(0.5,0.5) rotate(270) translate(-0.5,-0.5)" class="linearGradient2" id="linearGradientd66b96b548e50eea898a880857a3f017">
   <stop stop-color="#f58b1f" class="linearGradientColor1" offset="0%" id="stop1"/>
     <stop stop-color="#ee3e30" class="linearGradientColor2" offset="100%" id="stop2"/>
  </linearGradient>
 </defs>
  <g>
  <title>Layer 1</title>
    <path id="svg_1" class="color c1" d="m100,23.0535c-49.626,0 -90,40.088 -90,89.363c0,17.665 5.183,34.745 14.988,49.396c0.631,1.03 8.021,12.725 18.229,13.549c5.104,0.412 9.875,-1.895 14.204,-6.841c7.565,4.5 17.508,3.536 24.028,-2.936c7.69,-7.636 7.69,-20.015 0,-27.649c-7.691,-7.634 -20.161,-7.634 -27.851,0c-7.643,7.587 -7.683,19.854 -0.137,27.499c-3.167,3.533 -6.466,5.214 -9.831,4.943c-7.894,-0.628 -14.333,-11.101 -14.395,-11.203l-0.064,-0.102c-9.271,-13.832 -14.171,-29.967 -14.171,-46.656c0,-46.518 38.131,-84.363 85,-84.363s85,37.845 85,84.362c0,15.021 -2.802,42.302 -21.568,56.23c-3.57,2.652 -7.13,3.713 -10.572,3.149c-6.084,-0.991 -10.115,-6.685 -10.154,-6.74l-4.114,2.842c0.21,0.304 5.224,7.465 13.414,8.825c0.899,0.149 1.8,0.225 2.698,0.225c3.941,0 7.87,-1.436 11.71,-4.286c20.522,-15.233 23.586,-44.284 23.586,-60.244c0,-49.275 -40.374,-89.363 -90,-89.363z" fill="url(#linearGradient49c8a72cd5700b0b9505a6595135229a)"/>
    <path id="svg_2" class="color c2" d="m153.24419,80.0433c-6.813,-7.569 -13.466,-5.738 -19.505,-11.992c-5.704,-6.563 -3.299,-13.028 -10.241,-20.477c-22.772,-24.422 -97.25,14.091 -80.389,32.494c17.614,19.388 35.208,0.223 54.588,21.003c19.006,21.12 -1.621,36.974 16.151,56.212c16.862,18.406 61.734,-52.422 39.396,-77.24zm-52.765,-5.454l-4.952,-5.405l-5.405,4.952l-4.952,-5.404l5.405,-4.951l-4.952,-5.405l5.405,-4.952l4.952,5.405l5.404,-4.951l4.953,5.404l-5.404,4.95l4.951,5.405l-5.405,4.952zm20.877,32.105c-2.683,-1.43 -3.69,-4.761 -2.26,-7.439c1.429,-2.678 4.759,-3.692 7.438,-2.261c2.682,1.431 3.691,4.762 2.262,7.439s-4.757,3.691 -7.44,2.261zm17.894,5.396c-2.682,-1.43 -3.688,-4.759 -2.261,-7.438c1.431,-2.679 4.759,-3.69 7.439,-2.261s3.69,4.761 2.261,7.439c-1.43,2.678 -4.759,3.691 -7.439,2.26z" fill="url(#linearGradientd66b96b548e50eea898a880857a3f017)"/>
 </g>
</svg>
