<?xml version="1.0" standalone="no"?>
<!DOCTYPE svg PUBLIC "-//W3C//DTD SVG 20010904//EN"
 "http://www.w3.org/TR/2001/REC-SVG-20010904/DTD/svg10.dtd">
<svg version="1.0" xmlns="http://www.w3.org/2000/svg"
 width="700.000000pt" height="700.000000pt" viewBox="0 0 700.000000 700.000000"
 preserveAspectRatio="xMidYMid meet">
<metadata>
Created by potrace 1.14, written by Peter Selinger 2001-2017
</metadata>
<g transform="translate(0.000000,700.000000) scale(0.100000,-0.100000)"
fill="#000000" stroke="none">
<path d="M3447 6194 c-1 -1 -58 -4 -127 -8 -69 -3 -141 -8 -160 -11 -19 -2
-57 -7 -85 -10 -27 -3 -84 -12 -125 -20 -41 -8 -86 -17 -100 -19 -125 -22
-352 -91 -512 -155 -685 -272 -1244 -764 -1604 -1410 -152 -273 -280 -630
-330 -921 -2 -14 -9 -45 -14 -70 -5 -25 -12 -77 -15 -115 -4 -39 -10 -97 -15
-130 -8 -62 -6 -499 4 -570 3 -22 8 -58 11 -81 3 -22 8 -60 11 -85 3 -24 7
-51 9 -59 3 -8 7 -33 11 -55 23 -150 116 -448 200 -643 168 -391 407 -724 617
-860 185 -120 368 -143 533 -66 62 29 148 89 203 144 l51 50 39 -20 c40 -20
98 -41 156 -55 17 -5 37 -10 45 -12 39 -10 212 -4 271 11 256 60 468 274 514
517 3 13 7 35 10 49 12 54 5 188 -14 262 -42 164 -122 281 -271 396 -125 96
-345 144 -519 112 -391 -71 -641 -454 -546 -835 21 -85 80 -203 136 -270 l41
-50 -53 -48 c-130 -116 -269 -147 -404 -92 -216 89 -479 428 -650 840 -20 50
-43 104 -50 120 -31 72 -110 345 -130 450 -104 539 -69 1059 105 1561 17 49
37 103 45 119 7 17 27 64 45 105 229 527 663 1018 1175 1327 128 77 297 162
427 214 57 23 108 42 113 44 6 1 17 5 25 8 38 16 187 58 300 86 136 33 287 57
426 68 170 14 534 7 629 -12 11 -2 43 -7 70 -10 28 -3 59 -8 70 -10 11 -3 31
-7 45 -9 51 -9 176 -37 205 -46 224 -70 308 -98 347 -117 27 -13 52 -23 58
-23 5 0 80 -36 167 -79 179 -90 379 -218 533 -341 95 -76 327 -299 390 -375
316 -379 529 -791 630 -1221 35 -147 34 -143 55 -284 36 -237 36 -647 0 -910
-4 -25 -9 -61 -11 -80 -75 -558 -303 -1038 -626 -1319 -145 -127 -253 -180
-377 -185 -140 -6 -252 46 -380 174 l-60 60 -69 -47 -70 -48 18 -25 c56 -79
195 -190 291 -235 223 -101 448 -67 677 104 364 271 629 746 740 1331 20 102
25 131 38 235 3 28 8 58 10 67 17 95 26 647 11 753 -4 28 -9 73 -12 100 -5 49
-29 195 -40 245 -4 14 -8 36 -11 50 -12 60 -59 224 -94 327 -170 496 -493 980
-885 1322 -27 24 -61 53 -75 65 -14 12 -52 42 -85 67 -33 24 -62 47 -65 50 -8
9 -177 121 -255 169 -215 132 -578 283 -825 344 -111 28 -289 61 -375 72 -27
3 -61 7 -75 10 -43 7 -387 23 -393 18z"/>
<path d="M3388 5605 c-2 -2 -34 -6 -73 -10 -38 -3 -106 -13 -150 -22 -44 -8
-90 -17 -101 -19 -197 -37 -525 -154 -765 -274 -630 -313 -976 -719 -848 -996
14 -30 55 -81 108 -134 132 -132 267 -211 430 -255 116 -31 173 -36 521 -50
125 -5 148 -7 250 -20 89 -11 219 -53 315 -100 264 -130 508 -410 594 -680 49
-150 60 -249 53 -460 -8 -246 -8 -523 0 -576 12 -75 58 -210 95 -279 63 -117
160 -238 229 -287 110 -79 281 -64 447 38 299 183 645 633 847 1099 18 41 39
89 46 105 64 138 164 512 180 675 39 385 -37 667 -232 865 -86 88 -167 137
-341 208 -306 125 -381 210 -478 542 -106 363 -347 562 -750 620 -75 11 -367
19 -377 10z m-76 -612 c46 -50 49 -52 67 -35 18 17 93 86 144 131 l26 24 58
-63 c32 -35 71 -76 86 -93 l28 -30 -93 -88 -93 -87 20 -23 c11 -13 45 -50 75
-82 30 -32 59 -65 63 -73 8 -14 -44 -69 -151 -161 l-26 -22 -71 76 c-38 42
-74 82 -78 89 -16 28 -35 16 -164 -107 -22 -21 -44 -39 -47 -39 -3 0 -25 21
-48 47 -24 25 -62 67 -86 92 l-43 46 28 24 c16 13 58 52 95 87 l67 64 -44 48
c-24 26 -62 67 -85 92 l-42 45 94 88 93 87 39 -42 c22 -24 61 -66 88 -95z
m1133 -1401 c59 -41 88 -102 81 -175 -24 -241 -381 -219 -378 23 2 151 173
238 297 152z m612 -177 c45 -29 80 -73 90 -113 58 -229 -248 -347 -355 -137
-45 90 -5 204 88 251 54 27 134 27 177 -1z"/>
</g>
</svg>
