<!DOCTYPE html>
<svg version="1.1" id="logo" x="0px" y="0px" width="180px" height="153.895px" viewBox="0 0 200 200" enable-background="new 0 0 180 153.895" xml:space="preserve" xmlns="http://www.w3.org/2000/svg" xmlns:xlink="http://www.w3.org/1999/xlink" xmlns:xml="http://www.w3.org/XML/1998/namespace" style="transform: rotate(0deg) scale(1, 1); opacity: 1; position: absolute; backface-visibility: hidden; left: 234px; top: 234.793px; width: 560.45px; height: 479.496px; overflow: visible;">
  <defs class="defs">
    <linearGradient id="linearGradient49c8a72cd5700b0b9505a6595135229a" class="linearGradient1" gradientTransform="translate(0.5,0.5) rotate(270) translate(-0.5,-0.5)" x1="50%" y1="0%" x2="50%" y2="100%">
      <stop id="stop1" offset="0%" class="linearGradientColor1" stop-color="#FFDD64"></stop>
        <stop id="stop2" offset="100%" class="linearGradientColor2" stop-color="#FF8F00"></stop>
    </linearGradient>
      <linearGradient id="linearGradientd66b96b548e50eea898a880857a3f017" class="linearGradient2" gradientTransform="translate(0.5,0.5) rotate(270) translate(-0.5,-0.5)" x1="50%" y1="0%" x2="50%" y2="100%">
      <stop id="stop1" offset="0%" class="linearGradientColor1" stop-color="#f58b1f"></stop>
          <stop id="stop2" offset="100%" class="linearGradientColor2" stop-color="#ee3e30"></stop>
    </linearGradient>
  </defs>
    <path fill="url(#linearGradient49c8a72cd5700b0b9505a6595135229a)" d="M90,0C40.374,0,0,40.088,0,89.363c0,17.665,5.183,34.745,14.988,49.396
	c0.631,1.03,8.021,12.725,18.229,13.549c5.104,0.412,9.875-1.895,14.204-6.841c7.565,4.5,17.508,3.536,24.028-2.936
	c7.69-7.636,7.69-20.015,0-27.649c-7.691-7.634-20.161-7.634-27.851,0c-7.643,7.587-7.683,19.854-0.137,27.499
	c-3.167,3.533-6.466,5.214-9.831,4.943c-7.894-0.628-14.333-11.101-14.395-11.203l-0.064-0.102C9.9,122.187,5,106.052,5,89.363
	C5,42.845,43.131,5,90,5s85,37.845,85,84.362c0,15.021-2.802,42.302-21.568,56.23c-3.57,2.652-7.13,3.713-10.572,3.149
	c-6.084-0.991-10.115-6.685-10.154-6.74l-4.114,2.842c0.21,0.304,5.224,7.465,13.414,8.825c0.899,0.149,1.8,0.225,2.698,0.225
	c3.941,0,7.87-1.436,11.71-4.286C176.936,134.374,180,105.323,180,89.363C180,40.088,139.626,0,90,0z" class="color c1"></path>
    <path fill="url(#linearGradientd66b96b548e50eea898a880857a3f017)" d="M149.557,71.085c-6.813-7.569-13.466-5.738-19.505-11.992c-5.704-6.563-3.299-13.028-10.241-20.477
	c-22.772-24.422-97.25,14.091-80.389,32.494C57.036,90.498,74.63,71.333,94.01,92.113c19.006,21.12-1.621,36.974,16.151,56.212
	C127.023,166.731,171.895,95.903,149.557,71.085z M96.792,65.631l-4.952-5.405l-5.405,4.952l-4.952-5.404l5.405-4.951l-4.952-5.405
	l5.405-4.952l4.952,5.405l5.404-4.951l4.953,5.404l-5.404,4.95l4.951,5.405L96.792,65.631z M117.669,97.736
	c-2.683-1.43-3.69-4.761-2.26-7.439c1.429-2.678,4.759-3.692,7.438-2.261c2.682,1.431,3.691,4.762,2.262,7.439
	S120.352,99.166,117.669,97.736z M135.563,103.132c-2.682-1.43-3.688-4.759-2.261-7.438c1.431-2.679,4.759-3.69,7.439-2.261
	s3.69,4.761,2.261,7.439C141.572,103.55,138.243,104.563,135.563,103.132z" class="color c2"></path>
</svg>